<svg width="24" height="25" viewBox="0 0 24 25" fill="none" xmlns="http://www.w3.org/2000/svg">
<g clip-path="url(#clip0_13_322)">
<path d="M5 4.6665H9L11 9.6665L8.5 11.1665C9.57096 13.338 11.3285 15.0955 13.5 16.1665L15 13.6665L20 15.6665V19.6665C20 20.1969 19.7893 20.7056 19.4142 21.0807C19.0391 21.4558 18.5304 21.6665 18 21.6665C14.0993 21.4295 10.4202 19.773 7.65683 17.0097C4.8935 14.2464 3.23705 10.5672 3 6.6665C3 6.13607 3.21071 5.62736 3.58579 5.25229C3.96086 4.87722 4.46957 4.6665 5 4.6665Z" stroke="black" stroke-width="2" stroke-linecap="round" stroke-linejoin="round"/>
</g>
<defs>
<clipPath id="clip0_13_322">
<rect width="24" height="24" fill="white" transform="translate(0 0.666504)"/>
</clipPath>
</defs>
</svg>
