<svg width="24" height="25" viewBox="0 0 24 25" fill="none" xmlns="http://www.w3.org/2000/svg">
<g clip-path="url(#clip0_13_310)">
<path d="M9 11.3333C9 12.1289 9.31607 12.892 9.87868 13.4546C10.4413 14.0172 11.2044 14.3333 12 14.3333C12.7956 14.3333 13.5587 14.0172 14.1213 13.4546C14.6839 12.892 15 12.1289 15 11.3333C15 10.5376 14.6839 9.77454 14.1213 9.21193C13.5587 8.64932 12.7956 8.33325 12 8.33325C11.2044 8.33325 10.4413 8.64932 9.87868 9.21193C9.31607 9.77454 9 10.5376 9 11.3333Z" stroke="black" stroke-width="2" stroke-linecap="round" stroke-linejoin="round"/>
<path d="M17.657 16.9902L13.414 21.2332C13.039 21.6078 12.5306 21.8183 12.0005 21.8183C11.4704 21.8183 10.962 21.6078 10.587 21.2332L6.343 16.9902C5.22422 15.8714 4.46234 14.4459 4.15369 12.8941C3.84504 11.3422 4.00349 9.73372 4.60901 8.27193C5.21452 6.81015 6.2399 5.56074 7.55548 4.68171C8.87107 3.80268 10.4178 3.3335 12 3.3335C13.5822 3.3335 15.1289 3.80268 16.4445 4.68171C17.7601 5.56074 18.7855 6.81015 19.391 8.27193C19.9965 9.73372 20.155 11.3422 19.8463 12.8941C19.5377 14.4459 18.7758 15.8714 17.657 16.9902Z" stroke="black" stroke-width="2" stroke-linecap="round" stroke-linejoin="round"/>
</g>
<defs>
<clipPath id="clip0_13_310">
<rect width="24" height="24" fill="white" transform="translate(0 0.333252)"/>
</clipPath>
</defs>
</svg>
